<?xml version="1.0" encoding="utf-8"?>
<!-- Generator: Adobe Illustrator 19.2.0, SVG Export Plug-In . SVG Version: 6.00 Build 0)  -->
<svg version="1.1" id="Layer_1" xmlns="http://www.w3.org/2000/svg" xmlns:xlink="http://www.w3.org/1999/xlink" x="0px" y="0px"
	 viewBox="0 0 462.6 221.2" style="enable-background:new 0 0 462.6 221.2;" xml:space="preserve">
<style type="text/css">
	.st0{fill:#FFFFFF;}
</style>
<path class="st0" d="M240.9,53.5c0,0.6,0,1.2,0,1.8c0.5,0.1,1,0.1,1.5,0.3c3.7,0.9,5.8,3.5,5.6,7.4c-0.2,3.1-1,6-2.6,8.6
	c-2.3,3.7-5.7,5.4-10,5.7c-3.3,0.2-6.4-0.3-9.5-1.4c-2.2-0.8-4.2-0.6-6,0.9c-0.4,0.3-0.6,1-0.7,1.5c-0.1,0.5,0.1,1,0.1,1.5
	c0,1.6-0.3,3.1-1.5,4.4c-1.8,1.8-3.4,3.7-5.2,5.4c-2.5,2.4-5.4,2.4-8.6,1c1.6-2.1,3.2-4.2,4.7-6.3c1-1.3,0.3-2.7-1.3-3
	c-0.8-0.1-1.3,0.1-1.7,0.8c-1.4,2.1-2.9,4.1-4.3,6.2c-1.3,1.8-5.5,2.1-6.9,0.4c-0.5-0.6-0.6-1.6-0.6-2.4c0.1-1.2-0.1-2.1-0.9-2.9
	c-0.8-0.7-1.4-1.6-2.1-2.5c-1.5-1.8-1.6-2.6-0.4-4.7c2.4-4.3,4.8-8.6,7.4-12.7c5.6-9.2,11.3-18.5,17.1-27.6c1.4-2.2,3.5-4.1,5.3-5.9
	c0.6-0.6,1.6-0.9,2.5-1.2c-9.8,15.6-18.7,31.7-27.6,47.6c1,0.2,2.1,0.2,2.7,0.7c0.5,0.5,0.4,1.6,0.6,2.4c1.2-0.2,2.1-1.1,2.3-2.4
	c0.2-1.5-0.8-2.1-2.1-2.6c3.4-5.3,6.8-10.6,10.2-15.7c1.8-2.7,3.7-5.3,5.7-7.8c1.4-1.9,2.6-2.2,4.2-1.3c0.4,0.2,0.7,0.5,1,0.9
	c2,2.7,5.4,2.7,7.5,0.1c1-1.3,1.9-2.7,2.9-4.1c-1.1-1.5-2.9-1.9-4.6-2c-1.8-0.1-3.6-0.3-5.3,0.1c-1.6,0.3-3.1,1.3-4.6,2
	c-0.1-0.1-0.2-0.2-0.3-0.2c0.4-0.7,0.6-1.4,1.1-2c1.5-1.9,3.7-2.9,5.8-3.8c0.6-0.3,1.2-0.7,1.7-1.2c2.4-2.8,4-6,5.4-9.4
	c0.3-0.8,0.7-1,1.5-1c2.1,0.1,4.1,0,6.3,0c-0.2-0.3-0.4-0.7-0.6-1c-3.2-4.4-4.2-9.3-3.4-14.6c0.4-2.5,0.9-4.9,1.3-7.8
	c1.9,1.3,3.6,2.3,5.2,3.5c2.9,2.2,5.5,4.8,6.9,8.3c1.6,4,1,8-0.5,11.8c-1.1,2.8-2.7,5.3-4.1,8c-0.2,0.4-0.9,0.8-0.2,1.3
	c0.6,0.5,1.2,0.5,1.8-0.2c1.8-2,3.7-4,4.6-6.7c7.6,1.1,14.5,3.9,20.6,8.5c8.2,6.3,12.7,14.7,14.2,24.9c1.5,10.2-0.1,20.1-2.8,29.9
	c-2.3,8.5-5.6,16.7-9.4,24.7c-0.2,0.4-0.3,0.7-0.5,1.1c0.1,0.1,0.1,0.2,0.2,0.2c3.1,1,4.6,3.1,4.1,6.5c-0.1,0.8,0,1.7,0,2.7
	c2.8,0,5.4,0,8.1,0c0,5,0,9.8,0,14.7c-37.7,0-75.4,0-113.2,0c0-4.9,0-9.7,0-14.7c2.7,0,5.4,0,8.2,0c0-1.5,0-2.8,0-4.2
	c0-1.9,0.8-2.7,2.7-2.7c1.6,0,3.1,0,4.6,0c2-9.5,8.6-15.5,15.9-20.8c7.9-5.8,16.8-9.8,25.9-13.3c7-2.7,13.6-6.1,19.1-11.2
	c3.3-3.1,6-6.6,7-11.2c1.6-6.9-2.7-12.8-9.8-13.3C242.3,53.3,241.7,53.5,240.9,53.5z M253.8,122.1c2.6,1.1,4.7,0.8,6.5-1.2
	c5.3-5.8,9-12.5,11.3-20c0.6-2.1,1-4.2,1.4-6.3c-0.1,0-0.2-0.1-0.4-0.1C268.5,105.1,261.5,113.9,253.8,122.1z M260.9,64.4
	c-0.2,1.3-0.3,2.6-0.5,3.8c-1.2,5.4-4.3,9.7-8.1,13.6c-4.3,4.5-9.4,8.1-14.3,12c-1.6,1.3-3.3,2.6-4.9,3.9c0.2,0.1,0.4,0.1,0.5,0.1
	c0.6-0.3,1.2-0.6,1.8-0.9c7.5-4.5,14.5-9.5,20.6-15.7c2.3-2.3,4.3-5,5.3-8.1c0.8-2.5,1.4-5,0.9-7.6
	C262.1,64.8,261.8,64.2,260.9,64.4z M207.4,106.5c-7.6,2.3-11.6,8.2-15.5,14.9c1.6,0,3,0.1,4.4,0c0.3,0,0.8-0.5,0.9-0.9
	c0.9-2.8,2.1-5.4,4-7.6C203.1,110.7,205.3,108.6,207.4,106.5z"/>
<path class="st0" d="M109.8,170.8c0-0.5,0-0.8,0-1.3c2.8,0,5.5-0.1,8.2,0c3.1,0.1,6.2,0.2,9.3,0.5c1.1,0.1,2.2,0.6,3.1,1.1
	c3.6,2,3.7,6.4,0.3,8.6c-1.3,0.9-2.9,1.3-4.5,2c2,2.6,4,5.4,6.3,8c0.7,0.9,2,1.3,3,1.9c0.1-0.1,0.1-0.2,0.2-0.2c0,0.3,0,0.7,0,1.1
	c-2.2,0-4.4,0-6.5,0c-0.4,0-0.8-0.5-1.1-0.8c-1.9-2.6-3.8-5.3-5.8-8c-1.4-2-1.4-2-4.1-1.7c0,2.5,0,5.1,0,7.6c0,0.9,0.5,1.4,1.4,1.5
	c0.5,0,1,0.1,1.6,0.2c0,0.3,0,0.7,0.1,1.1c-3.9,0-7.7,0-11.6,0c0-0.4,0-0.7,0-1c0.1-0.1,0.2-0.1,0.2-0.1c3.1-0.3,3.1-0.4,3.1-3.5
	c0-4.6,0-9.2,0-13.8c0-0.4,0-0.7,0-1.1c-0.1-1.7-0.5-2-2.2-2.1C110.6,170.8,110.2,170.8,109.8,170.8z M118.2,180.3
	c2.9,0.3,5.9-0.1,7.4-0.9c1.6-0.8,2.1-2.2,2.1-3.9c0-1.6-0.6-3-2.2-3.7c-1.2-0.5-2.6-0.8-3.9-0.8c-3.8-0.1-3.4-0.6-3.4,3.4
	C118.2,176.4,118.2,178.4,118.2,180.3z"/>
<path class="st0" d="M287.7,182c0,2.5,0,5,0,7.5c0,1,0.5,1.6,1.5,1.6c0.5,0,1,0.1,1.5,0.2c0,0.3,0,0.7,0,1.1c-3.8,0-7.6,0-11.5,0
	c0-0.4,0-0.7-0.1-1.1c0.4-0.1,0.8-0.1,1.1-0.1c2-0.2,2.3-0.5,2.3-2.6c0-5.1,0-10.2,0-15.4c0-2.1-0.4-2.4-2.4-2.5
	c-0.3,0-0.5,0-0.9-0.1c0-0.4,0-0.8,0-1.3c1.6,0,3.2,0,4.8,0c3.8,0.1,7.6,0,11.4,0.3c1.5,0.1,3.1,0.7,4.4,1.4
	c3.6,1.9,3.8,6.3,0.4,8.6c-1.3,0.9-2.9,1.3-4.5,2c2,2.6,4.1,5.5,6.3,8.1c0.7,0.8,1.9,1.2,2.9,1.8c0.1-0.1,0.1-0.2,0.2-0.3
	c0,0.3,0,0.7,0,1.2c-2.2,0-4.4,0-6.6,0c-0.3,0-0.7-0.4-0.9-0.8c-1.9-2.6-3.8-5.2-5.7-7.9C290.4,181.8,290.5,181.8,287.7,182z
	 M287.7,180.6c2.2-0.2,4.2-0.3,6.1-0.7c2.3-0.5,3.5-2.1,3.5-4.4c0-2.1-1.2-3.7-3.5-4.1c-1.7-0.3-3.5-0.3-5.2-0.3
	c-0.3,0-0.8,0.6-0.8,1C287.7,174.8,287.7,177.5,287.7,180.6z"/>
<path class="st0" d="M208.8,180.2c1.3,0.4,3.2,0.7,5,1.5c3.5,1.7,4,5.9,1.1,8.5c-1.9,1.7-4.3,2.2-6.7,2.3c-4.9,0.1-9.8,0-14.8,0
	c0-0.4,0-0.7-0.1-1.1c0.3,0,0.4-0.1,0.6-0.1c2.6-0.3,2.8-0.5,2.8-3.1c0-4.6,0-9.2,0-13.8c0-3.4,0-3.4-3.3-3.7c0-0.2-0.1-0.3-0.1-0.5
	c0-0.2,0-0.4,0-0.6c0.1-0.1,0.2-0.1,0.3-0.1c5.2,0.1,10.5,0,15.7,0.3c1.4,0.1,2.8,0.6,4,1.4c2.7,1.6,2.8,5.2,0.2,7
	C211.8,179.1,210,179.6,208.8,180.2z M201.8,181c0,0.7,0,1,0,1.4c0,2.4,0,4.8,0,7.2c0,1,0.5,1.4,1.4,1.4c1.2,0,2.4,0,3.6-0.1
	c2.9-0.2,4.2-1.6,4.5-4.7c0.2-2.3-1.2-4.2-3.8-4.7C205.6,181.2,203.8,181.2,201.8,181z M201.8,179.5c2.4,0.3,4.7,0,6.1-0.7
	c1.6-0.8,2.4-2.4,2.2-4.2c-0.2-1.8-1.1-3-2.9-3.3c-1.5-0.3-3.1-0.2-4.7-0.2c-0.3,0-0.7,0.6-0.8,0.9
	C201.7,174.5,201.8,176.9,201.8,179.5z"/>
<path class="st0" d="M137.1,192.6c0-0.5,0-0.9,0-1.2c0.1,0,0.1-0.1,0.2-0.1c3.1-0.3,3.2-0.4,3.2-3.5c0-4.6,0-9.2,0-13.8
	c0-0.4,0-0.8,0-1.2c-0.1-1.7-0.5-2-2.1-2.1c-0.4,0-0.7,0-1.2,0c0-0.4-0.1-0.8-0.1-1.2c0.4,0,0.7-0.1,1-0.1c4.2,0,8.4-0.2,12.6,0.1
	c2.3,0.1,4.7,0.6,6.9,1.3c2.7,0.9,4.5,3.1,5.3,5.8c0.9,3.1,0.9,6.2-0.3,9.2c-1.7,4.3-5.3,6-9.5,6.4
	C147.8,192.6,142.5,192.5,137.1,192.6z M145.6,181C145.6,181,145.6,181,145.6,181c0,2.8,0,5.7,0,8.5c0,1.1,0.5,1.6,1.6,1.5
	c0.7,0,1.4,0,2,0c4.5-0.1,7.6-2.5,8.5-6.8c0.6-2.6,0.4-5.2-0.3-7.8c-0.9-3.1-3-4.9-6.2-5.3c-1.3-0.2-2.6-0.2-3.9-0.2
	c-1.4,0-1.7,0.2-1.7,1.7C145.6,175.4,145.6,178.2,145.6,181z"/>
<path class="st0" d="M93.1,193.2c-1.7-0.3-3.5-0.4-5.3-0.9c-3.9-1-6.4-3.6-7.3-7.5c-0.6-2.7-0.6-5.5,0.2-8.2
	c1.3-4.3,4.5-6.5,8.7-7.3c3-0.6,6.1-0.5,9,0.2c5,1.3,7.7,4.7,8.2,10.2c0.6,6.5-2.3,11.1-8.1,12.6C96.8,192.8,95,192.9,93.1,193.2z
	 M101.5,181c-0.1,0-0.1,0-0.2-0.1c-0.1-1.2-0.2-2.4-0.3-3.6c-0.5-4.1-2.6-6.3-6.4-6.9c-3.6-0.6-7,1.1-8.2,4.2
	c-0.5,1.4-0.8,2.8-0.9,4.3c-0.3,2.9-0.2,5.7,1.1,8.4c1.3,3,3.8,4.2,6.9,4.1c3-0.1,5.6-1.3,6.6-4.4C100.8,185.2,101,183.1,101.5,181z
	"/>
<path class="st0" d="M336.7,173.2c0,0.5-0.1,0.8-0.1,1c0,4.8,0,9.6,0,14.4c0,2.2,0.2,2.4,2.4,2.7c0.2,0,0.4,0,0.7,0.1
	c0,0.4,0,0.7,0.1,1.1c-2.9,0-5.8,0-8.7,0c0-0.4,0-0.7,0-1.1c0.1,0,0.2-0.1,0.2-0.1c2.9-0.3,2.9-0.4,3-3.3c0-4.6,0-9.1,0-13.7
	c0-3.2,0-3.2-3.3-3.7c0-0.3,0-0.7-0.1-1.2c2.6,0,5.2,0,7.7,0c0.4,0,0.8,0.5,1.1,0.9c4.1,5.5,8.2,11,12.4,16.5
	c0.1,0.2,0.2,0.3,0.5,0.6c0-0.5,0.1-0.8,0.1-1.2c0-4.2,0-8.5,0-12.7c0-2.5-0.2-2.7-2.7-2.8c-0.2,0-0.3,0-0.5-0.1c0-0.4,0-0.8,0-1.2
	c2.9,0,5.8,0,8.7,0c0,0.4,0,0.7,0,1.1c-0.1,0.1-0.2,0.1-0.2,0.1c-3.1,0-2.8,0.9-2.8,3.2c0,5.8,0,11.5,0,17.3c0,0.4,0,0.9,0,1.5
	c-1.2,0-2.3,0.1-3.4,0c-0.3,0-0.6-0.4-0.9-0.7c-4.5-6-9-12-13.6-18C337.2,173.8,337,173.6,336.7,173.2z"/>
<path class="st0" d="M252.2,179.8c1.5,0,2.9,0,4.2,0c1.9,0,2.3-0.4,2.4-2.3c0-0.2,0-0.5,0.1-0.8c0.6,0,1.3,0,1.9,0
	c0,2.6,0,5.1,0,7.8c-0.6,0-1.2,0-1.9,0c0-0.1-0.1-0.1-0.1-0.2c-0.2-2.9-0.3-2.9-3.2-3c-1.1,0-2.2,0-3.5,0c0,1.5,0,2.8,0,4.2
	c0,1.3,0,2.6,0,4c0,0.9,0.3,1.4,1.3,1.4c2.2,0,4.3-0.1,6.5,0c1.6,0,2.5-0.8,3-2.2c0.6-1.7,0.6-1.7,2.7-1.4c-0.4,1.7-0.9,3.4-1.3,5.1
	c-6.9,0-13.7,0-20.6,0c0-0.3,0-0.7-0.1-1.1c0.5-0.1,0.9-0.1,1.3-0.2c1.7-0.2,2-0.4,2.1-2.2c0.1-5.4,0.1-10.7,0-16.1
	c0-1.8-0.4-2.1-2.2-2.2c-0.4,0-0.7,0-1.2-0.1c0-0.4,0-0.8-0.1-1.2c6.6,0,13,0,19.6,0c0.4,1.6,0.8,3.3,1.3,4.9
	c-2,0.4-2.1,0.4-2.7-1.2c-0.7-1.8-1.2-2.2-3.1-2.2c-1.8,0-3.5,0-5.3,0c-0.7,0-1.3,0.2-1.3,1.1c0,2.1,0,4.2,0,6.4
	C252.2,178.9,252.2,179.3,252.2,179.8z"/>
<path class="st0" d="M315.3,179.8c1.5,0,2.9,0,4.2,0c1.9,0,2.3-0.4,2.4-2.3c0-0.2,0-0.5,0.1-0.8c0.6,0,1.3,0,1.9,0
	c0,2.6,0,5.1,0,7.8c-0.6,0-1.2,0-1.9,0c0-0.1-0.1-0.1-0.1-0.2c-0.2-2.9-0.3-2.9-3.2-3c-1.1,0-2.2,0-3.5,0c0,1.5,0,3,0,4.5
	c0,1.2,0,2.5,0,3.7c0,0.9,0.3,1.4,1.3,1.4c2.2,0,4.3-0.1,6.5,0c1.6,0,2.5-0.8,3-2.2c0.6-1.7,0.7-1.7,2.7-1.4
	c-0.4,1.7-0.9,3.4-1.3,5.1c-6.8,0-13.7,0-20.6,0c0-0.3,0-0.7-0.1-1.1c0.3,0,0.6-0.1,0.9-0.1c2.3-0.3,2.6-0.5,2.6-2.8
	c0-4.6,0-9.3,0-13.9c0-3.4,0-3.4-3.4-3.8c0-0.3,0-0.7-0.1-1.2c6.5,0,13,0,19.5,0c0.4,1.6,0.9,3.3,1.3,4.9c-2,0.4-2.1,0.4-2.7-1.3
	c-0.7-1.8-1.2-2.2-3.1-2.2c-1.8,0-3.5,0-5.3,0c-0.7,0-1.2,0.2-1.2,1.1C315.3,174.6,315.3,177.1,315.3,179.8z"/>
<path class="st0" d="M400.8,192.6c0-0.5,0-0.8,0-1.1c0.1-0.1,0.2-0.1,0.2-0.1c2.2-0.4,2.2-0.5,1.4-2.5c-0.5-1.1-0.7-2.6-1.6-3.1
	c-0.8-0.6-2.3-0.2-3.5-0.2c-1.8,0-3.6,0-5.4,0c-0.4,0-0.9,0.4-1.1,0.8c-0.4,0.8-0.7,1.7-1,2.6c-0.7,2-0.7,2.1,1.5,2.5
	c0,0.3,0,0.7,0.1,1.1c-2.3,0-4.6,0-6.9,0c0-0.3,0-0.7-0.1-1c0.1-0.1,0.2-0.2,0.2-0.2c1.4-0.1,2-1,2.5-2.2c2.6-6.3,5.2-12.7,7.8-19
	c0.3-0.7,0.5-1.2,1.4-1.1c1,0.2,2-0.4,2.7,1c2.8,6.4,5.8,12.7,8.7,19c0.5,1.2,1.2,2.3,2.8,2.2c0,0.1,0.1,0.2,0.1,0.3
	c-0.2,0.3-0.5,0.9-0.7,0.9C406.9,192.6,403.9,192.6,400.8,192.6z M391.8,183.8c2.9,0,5.6,0,8.4,0c-1.5-3.4-2.9-6.6-4.4-10.1
	C394.4,177.2,393.1,180.4,391.8,183.8z"/>
<path class="st0" d="M12.1,191.4c0,0.4,0,0.7,0,1.1c-2.3,0-4.5,0-6.9,0c0-0.3,0-0.7-0.1-1.2c1.6,0,2.3-1,2.8-2.3
	c2.6-6.3,5.2-12.6,7.8-18.9c0.3-0.8,0.8-1,1.6-1.1c1.5-0.2,2.2,0.5,2.8,1.8c2.7,6.1,5.6,12.2,8.4,18.3c0.6,1.2,1.2,2.3,2.8,2.3
	c0,0.4,0,0.8,0,1.2c-3.2,0-6.4,0-9.7,0c0-0.4,0-0.7,0-1.1c0.3-0.1,0.6-0.1,1-0.2c1.1-0.1,1.3-0.7,0.9-1.6c0,0,0-0.1,0-0.1
	c-0.6-1.3-0.8-3.1-1.8-3.8c-0.9-0.7-2.6-0.2-4-0.3c-1.6,0-3.2,0-4.8,0c-0.7,0-1.1,0.2-1.3,0.9c-0.2,0.8-0.6,1.7-0.9,2.5
	C9.9,190.9,9.9,191,12.1,191.4z M21,183.8c-1.5-3.4-2.9-6.7-4.4-10.1c-1.4,3.5-2.7,6.8-4,10.1C15.4,183.8,18.1,183.8,21,183.8z"/>
<path class="st0" d="M172,191.4c0,0.4,0,0.7,0,1.1c-2.3,0-4.5,0-6.9,0c0-0.3,0-0.7-0.1-1c0.1-0.1,0.2-0.1,0.3-0.2
	c1.3-0.1,1.9-1,2.3-2.1c2.6-6.4,5.3-12.7,7.9-19.1c0.2-0.6,0.4-1.3,1.3-1.1c0.9,0.2,2.1-0.5,2.7,0.9c2.8,6.3,5.7,12.5,8.6,18.8
	c0.5,1.2,1,2.4,2.5,2.6c0.2,0,0.4,0.6,0.6,1.1c-3.5,0-6.7,0-10,0c0-0.4,0-0.7,0-1c0.1,0,0.1-0.1,0.2-0.1c2.2-0.4,2.2-0.4,1.3-2.5
	c-0.5-1.1-0.7-2.6-1.6-3.1c-0.8-0.6-2.3-0.2-3.5-0.2c-1.8,0-3.5,0-5.3,0c-0.7,0-1.1,0.2-1.3,0.9c-0.3,0.8-0.6,1.6-0.9,2.5
	C169.7,190.9,169.7,191,172,191.4z M176.4,173.7c-1.4,3.5-2.7,6.8-4,10.1c2.8,0,5.5,0,8.4,0C179.4,180.5,177.9,177.2,176.4,173.7z"
	/>
<path class="st0" d="M33.2,170.8c0-0.4-0.1-0.7-0.1-1.3c0.5,0,0.8,0,1.2,0c5.8,0,11.5,0,17.3,0c0.8,0,1.3,0.1,1.5,1.1
	c0.2,1.4,0.7,2.7,1,4c-2,0.4-2,0.4-2.7-1.4c-0.7-1.7-1.2-2.1-3.1-2.1c-1.8,0-3.6,0-5.4,0c-0.8,0-1.3,0.3-1.3,1.2c0,2.6,0,5.1,0,7.8
	c1.7,0,3.3,0,4.9,0c0.9,0,1.3-0.7,1.5-1.5c0.1-0.5,0.1-0.9,0.1-1.5c0.7,0,1.3,0,2,0c0,2.5,0,5.1,0,7.8c-0.6,0-1.3,0-1.9,0
	c0-0.1-0.1-0.2-0.1-0.2c-0.2-2.9-0.3-2.9-3.1-2.9c-1.1,0-2.2,0-3.3,0c0,2.8,0,5.5,0,8.2c0,0.8,0.5,1.2,1.3,1.3
	c0.8,0.1,1.5,0.2,2.4,0.3c0,0.3,0,0.7,0.1,1.1c-4.1,0-8.2,0-12.3,0c0-0.3,0-0.7-0.1-1.1c0.5-0.1,0.8-0.1,1.2-0.1
	c2-0.3,2.3-0.5,2.3-2.6c0-5,0-10.1,0-15.1c0-2.3-0.3-2.6-2.6-2.7C33.8,170.8,33.5,170.8,33.2,170.8z"/>
<path class="st0" d="M436.5,186.9c0.7-0.1,1.3-0.2,2-0.4c0.2,0.4,0.4,0.8,0.6,1.3c1.7,3.7,7.4,4.9,10.5,2.2c1.4-1.2,1.6-3.5,0.3-4.8
	c-0.9-0.9-2.1-1.6-3.2-2.3c-1.8-1-3.7-1.9-5.5-2.9c-1-0.6-2-1.3-2.8-2.1c-2-1.9-1.7-5.1,0.5-6.9c1.7-1.4,3.7-2,5.8-2.1
	c2.7,0,5.4,0.3,8.1,0.5c0.3,0,0.7,0.5,0.8,0.8c0.3,1.4,0.6,2.8,0.9,4.3c-0.7,0.1-1.4,0.2-2,0.3c-0.1-0.2-0.2-0.2-0.2-0.3
	c-0.8-4.6-5-4.7-8.2-3.6c-2.6,0.9-3,3.5-0.8,5.2c1,0.8,2.2,1.4,3.4,2c2.2,1.2,4.5,2.2,6.5,3.5c3.7,2.4,3.5,7.1-0.3,9.3
	c-1.3,0.8-2.9,1.2-4.4,1.5c-3.3,0.7-6.7,0.2-10-0.5c-0.3-0.1-0.7-0.5-0.8-0.8C437.2,190,436.9,188.5,436.5,186.9z"/>
<path class="st0" d="M56.5,170.8c0-0.5,0-0.8,0-1.2c0.4,0,0.7,0,1,0c5.8,0,11.7,0,17.5,0c0.8,0,1.2,0.2,1.4,1c0.3,1.4,0.7,2.7,1,4
	c-1.8,0.5-2,0.4-2.6-1.2c-0.7-1.9-1.3-2.3-3.3-2.3c-1.7,0-3.4,0-5,0c-1,0-1.5,0.3-1.5,1.4c0,2.5,0,5,0,7.6c1.7,0,3.4,0.1,5.1-0.1
	c0.5-0.1,1-0.9,1.3-1.5c0.2-0.4,0.1-0.9,0.1-1.4c0.7,0,1.3,0,2,0c0,2.6,0,5.2,0,7.8c-0.6,0-1.3,0-1.9,0c0-0.1-0.1-0.3-0.1-0.4
	c-0.2-2.7-0.3-2.8-3-2.7c-1.1,0-2.2,0-3.4,0c0,2.8,0,5.4,0,8.1c0,0.8,0.5,1.3,1.4,1.4c0.8,0.1,1.5,0.2,2.4,0.3c0,0.3,0,0.7,0,1.1
	c-4.1,0-8.1,0-12.2,0c0-0.4,0-0.7,0-1.1c0.4-0.1,0.8-0.1,1.2-0.2c1.9-0.2,2.2-0.5,2.2-2.4c0-5.2,0-10.3,0-15.5
	c0-2.1-0.4-2.4-2.4-2.5C57.2,170.8,56.9,170.8,56.5,170.8z"/>
<path class="st0" d="M366,192.5c0-0.4,0-0.7,0-1.1c0.6-0.1,1.2-0.2,1.8-0.2c1.2,0,1.9-0.5,1.9-1.8c0-6,0-12,0-18.2
	c-1.9,0-3.7-0.1-5.5,0.1c-0.5,0-1.1,0.7-1.4,1.3c-0.4,0.7-0.6,1.6-0.8,2.4c-0.6,0-1.3,0-2.1,0c0.3-1.7,0.6-3.4,0.9-5.1
	c0-0.2,0.5-0.4,0.7-0.4c7.3,0,14.7,0,22.2,0c0.3,1.8,0.7,3.6,1,5.5c-0.7,0-1.4,0-2,0c0-0.1-0.1-0.1-0.1-0.2c-1-3.6-1-3.6-4.7-3.6
	c-1,0-1.9,0-3,0c0,0.5,0,0.9,0,1.4c0,5.2,0,10.5,0,15.7c0,2.7,0.2,2.8,2.8,3.1c0.3,0,0.6,0,1,0.1c0,0.4,0.1,0.7,0.1,1.1
	C374.4,192.5,370.3,192.5,366,192.5z"/>
<path class="st0" d="M241.6,187c-0.5,1.9-1,3.7-1.4,5.5c-6.9,0-13.7,0-20.7,0c0-0.4,0-0.7-0.1-1.1c0.5-0.1,0.9-0.1,1.3-0.2
	c1.7-0.2,2-0.5,2.1-2.2c0.1-5.4,0.1-10.7,0-16.1c0-1.8-0.4-2-2.2-2.2c-0.4,0-0.7,0-1.1-0.1c0-0.4,0-0.8,0-1.2c3.9,0,7.8,0,11.8,0
	c0,0.4,0,0.7,0,1.2c-0.5,0-1,0-1.4,0.1c-1.5,0.1-1.9,0.5-1.9,2c0,2.2,0,4.4,0,6.6c0,3.3,0,6.6,0,9.8c0,1.2,0.4,1.7,1.6,1.7
	c2.2-0.1,4.3-0.1,6.5-0.1c1.4,0,2.2-0.7,2.7-2c0.1-0.1,0.1-0.3,0.2-0.5C239.4,186.7,239.4,186.7,241.6,187z"/>
<path class="st0" d="M434.5,187c-0.5,1.9-1,3.7-1.4,5.5c-6.9,0-13.7,0-20.7,0c0-0.4,0-0.7,0-1.1c0.1,0,0.1-0.1,0.1-0.1
	c3.2-0.4,3.2-0.4,3.2-3.6c0-4.6,0-9.1,0-13.7c0-0.2,0-0.5,0-0.7c-0.1-2.2-0.4-2.5-2.5-2.6c-0.2,0-0.5,0-0.8,0c0-0.4-0.1-0.8-0.1-1.2
	c4,0,7.9,0,11.9,0c0,0.4,0,0.7,0,1.2c-0.4,0-0.8,0-1.3,0.1c-1.7,0.1-2,0.5-2.1,2.1c0,1.6,0,3.1,0,4.7c0,3.9,0,7.8,0,11.6
	c0,1.5,0.2,1.7,1.6,1.7c2.1,0,4.2-0.1,6.4,0c1.4,0,2.2-0.7,2.7-1.9c0.1-0.1,0.1-0.3,0.2-0.4C432.4,186.8,432.4,186.8,434.5,187z"/>
<path class="st0" d="M54.8,215.8c-0.5,0-0.9,0-1.4-0.1c0-1.9,0-3.7,0-5.5c-0.1,0-0.2,0-0.2-0.1c-0.7,1.2-1.3,2.5-2,3.7
	c-0.2,0.3-0.6,0.7-0.9,0.7c-0.3,0-0.7-0.4-0.9-0.7c-0.8-1.3-1.4-2.6-2.4-3.9c0,1.9,0,3.8,0,5.7c-0.5,0-0.9,0-1.4,0
	c0-2.8,0-5.6,0-8.5c1-0.3,1.7-0.1,2.1,0.9c0.7,1.6,1.6,3,2.5,4.7c0.8-1.5,1.7-3,2.4-4.5c0.5-1,1-1.5,2.2-1.1
	C54.8,210,54.8,212.8,54.8,215.8z"/>
<path class="st0" d="M299,215.8c0-3,0-5.7,0-8.5c1.5,0,2.9-0.2,4.3,0c2.3,0.4,3.5,2.2,3.3,4.6c-0.1,2-1.7,3.6-3.8,3.8
	C301.6,215.9,300.3,215.8,299,215.8z M300.6,214.4c1.7,0.5,3,0.2,3.8-0.8c0.8-1,0.8-3.1,0-4.2c-0.8-1-2.1-1.3-3.8-0.8
	C300.6,210.5,300.6,212.5,300.6,214.4z"/>
<path class="st0" d="M109.1,216.1c-0.7-0.4-1.3-0.6-1.6-1c-1.4-1.6-2.6-3.3-4.1-5.2c0,2.1,0,3.9,0,5.8c-0.5,0-0.9,0-1.4,0
	c0-2.8,0-5.6,0-8.9c0.7,0.4,1.3,0.6,1.7,1c1.4,1.6,2.6,3.3,4.1,5.2c0-2.1,0-3.9,0-5.9c0.5,0,0.9-0.1,1.4-0.1
	C109.1,210,109.1,212.8,109.1,216.1z"/>
<path class="st0" d="M151.9,215.8c-0.6,0-1,0-1.4,0c0-2.9,0-5.7,0-8.9c0.7,0.5,1.4,0.7,1.7,1.1c1.4,1.6,2.6,3.3,4.1,5.2
	c0-2.1,0-4,0-5.9c0.5,0,0.9,0,1.3,0c0,2.8,0,5.6,0,8.8c-0.7-0.4-1.3-0.6-1.6-1c-1.4-1.6-2.6-3.3-4.1-5.1
	C151.9,212.1,151.9,213.9,151.9,215.8z"/>
<path class="st0" d="M403.9,209.9c0,2.1,0,3.9,0,5.8c-0.5,0-0.9,0-1.4,0c0-2.9,0-5.7,0-8.9c0.7,0.5,1.4,0.7,1.7,1.1
	c1.4,1.6,2.6,3.3,4.1,5.2c0-2.1,0-4,0-5.9c0.5,0,0.9,0,1.3,0c0,2.8,0,5.6,0,8.9c-0.7-0.4-1.3-0.6-1.6-1
	C406.6,213.5,405.4,211.8,403.9,209.9z"/>
<path class="st0" d="M226,212.1c0,1.5,0,2.5,0,3.6c-0.6,0-1.1,0-1.6,0c0-2.8,0-5.6,0-8.7c1.5,0.1,3,0.1,4.4,0.4
	c1.7,0.4,2.1,2.6,0.8,3.9c-0.3,0.3-0.6,0.5-1,0.8c0.4,0.6,0.8,1.2,1.2,1.8c0.4,0.6,0.8,1.2,1.2,1.8c-1.2,0.4-2,0-2.5-1.1
	c-0.3-0.5-0.6-1.1-1-1.5C227.1,212.8,226.6,212.6,226,212.1z M226,208.4c0,0.5,0,0.9,0,1.4c0,0.5,0,0.9,0,1.4
	c1.9,0.2,2.7-0.2,2.7-1.4C228.7,208.7,228,208.3,226,208.4z"/>
<path class="st0" d="M328,212.1c0.8,1.2,1.6,2.3,2.4,3.5c-1.6,0.3-1.6,0.3-2.5-0.9c-0.4-0.5-0.6-1.1-1.1-1.6c-0.3-0.3-0.8-0.5-1.5-1
	c0,1.4,0,2.5,0,3.6c-0.6,0-1.1,0-1.6,0c0-2.8,0-5.6,0-8.4c1.3,0,2.5-0.1,3.8,0c1.1,0.1,1.9,0.7,2.1,1.9c0.2,1.1-0.3,2-1.3,2.6
	C328.3,211.9,328.1,212,328,212.1z M325.4,211.2c1,0.1,2,0.3,2.5-0.7c0.2-0.4,0.2-1.3-0.1-1.5c-0.7-0.4-1.5-0.5-2.4-0.8
	C325.4,209.4,325.4,210.3,325.4,211.2z"/>
<path class="st0" d="M62.3,211.5c0-2.6,1.8-4.3,4.4-4.3c2.6,0,4.4,1.8,4.3,4.4c0,2.5-1.8,4.3-4.3,4.3
	C64.1,215.8,62.3,214,62.3,211.5z M66.6,208.4c-1.7,0-2.7,1.2-2.7,3.3c0,1.8,1.1,3,2.7,3c1.7,0,2.8-1.3,2.8-3.2
	C69.4,209.5,68.3,208.3,66.6,208.4z"/>
<path class="st0" d="M390.6,215.8c-2.6,0-4.3-1.8-4.3-4.4c0-2.5,1.9-4.3,4.5-4.2c2.5,0.1,4.3,1.8,4.3,4.4
	C395,214.1,393.2,215.8,390.6,215.8z M388,211.5c0,1.9,1,3.1,2.7,3.1c1.7,0,2.7-1.2,2.7-3.1c0-1.9-1.1-3.2-2.8-3.1
	C388.9,208.4,388,209.6,388,211.5z"/>
<path class="st0" d="M188.8,215.8c-0.6,0-1.1,0-1.6,0c0-2.8,0-5.7,0-8.5c0.5,0,1,0,1.6,0c0,1.2,0,2.3,0,3.5c1.4,0,2.7,0,4.1,0
	c0-1.1,0-2.3,0-3.5c0.6,0,1,0,1.5,0c0,2.8,0,5.6,0,8.5c-0.4,0-0.9,0-1.4,0c0-1.2,0-2.4,0-3.7c-1.4,0-2.7,0-4.1,0
	C188.8,213.3,188.8,214.5,188.8,215.8z"/>
<path class="st0" d="M262.3,207.2c0.5,0,1,0,1.6,0c0,1.2,0,2.3,0,3.5c1.4,0,2.7,0,4.1,0c0-1.1,0-2.3,0-3.4c0.6,0,1,0,1.5,0
	c0,2.8,0,5.6,0,8.5c-0.5,0-0.9,0-1.5,0c0-1.2,0-2.4,0-3.7c-1.4,0-2.7,0-4.1,0c0,1.2,0,2.4,0,3.7c-0.6,0-1.1,0-1.6,0
	C262.3,212.9,262.3,210.1,262.3,207.2z"/>
<path class="st0" d="M122.9,212.7c-0.4,0-0.8-0.1-1.2-0.1c0-0.3-0.1-0.7-0.1-1.1c1,0,1.9,0,2.9,0c0,1,0,2,0,3c0,0.2-0.2,0.5-0.4,0.6
	c-1.4,1-4.3,0.8-5.7-0.4c-1.4-1.2-1.9-3.3-1.2-5.1c1.1-2.6,5-3.4,7.2-1.5c-0.3,1-0.8,0.9-1.6,0.5c-1.2-0.6-2.6-0.4-3.5,0.4
	c-0.9,0.8-1.1,2.6-0.6,3.8c0.5,1.1,1.4,1.7,2.8,1.7C122.9,214.6,123.1,214.4,122.9,212.7z"/>
<path class="st0" d="M254.4,208.2c-0.3,0.9-0.8,1-1.6,0.5c-1.2-0.7-2.6-0.4-3.5,0.4c-0.9,0.8-1.2,2.5-0.6,3.8
	c0.5,1.2,1.4,1.7,2.7,1.7c1.5,0,1.7-0.3,1.4-1.9c-0.4,0-0.8-0.1-1.2-0.1c0-0.4,0-0.7-0.1-1.1c0.9,0,1.8,0,2.9,0c0,1,0,2,0,3.1
	c0,0.2-0.2,0.4-0.4,0.6c-1.6,1.2-4.8,0.8-6.3-0.8c-1.4-1.6-1.4-4.3,0.1-5.9C249.6,206.8,252.5,206.7,254.4,208.2z"/>
<path class="st0" d="M207.9,207.2c0,0.4,0,0.7,0,1.1c-1.2,0-2.4,0-3.7,0c0,0.8,0,1.5,0,2.4c0.9,0,1.8,0,2.8,0c0,0.4,0.1,0.8,0.1,1.2
	c-1,0-1.9,0-2.9,0c0,0.9,0,1.7,0,2.7c1.2,0,2.4,0,3.7,0c0,0.5,0,0.8,0,1.2c-1.8,0-3.5,0-5.4,0c0-2.8,0-5.6,0-8.5
	C204.3,207.2,206.1,207.2,207.9,207.2z"/>
<path class="st0" d="M339.1,214.6c1.3,0,2.4,0,3.7,0c0,0.4,0,0.7,0,1.1c-1.8,0-3.5,0-5.4,0c0-2.8,0-5.6,0-8.5c1.8,0,3.5,0,5.4,0
	c0,0.4,0,0.7,0,1.1c-1.2,0-2.4,0-3.7,0c0,0.8,0,1.5,0,2.4c0.9,0,1.8,0,2.8,0c0,0.4,0.1,0.8,0.1,1.2c-1,0-1.9,0-2.9,0
	C339.1,212.8,339.1,213.6,339.1,214.6z"/>
<path class="st0" d="M81.4,213.7c0.7-1.8,1.4-3.5,2-5.2c0.4-1.1,0.9-1.6,2.2-1.2c-1.1,2.7-2.2,5.4-3.3,8c-0.1,0.3-0.6,0.5-0.9,0.5
	c-0.3,0-0.8-0.2-0.9-0.5c-1.1-2.6-2.2-5.3-3.3-8c1.1-0.4,1.7-0.1,2.1,1C79.9,210.1,80.7,211.9,81.4,213.7z"/>
<path class="st0" d="M356.7,208.2c-0.2,0.3-0.4,0.6-0.7,0.9c-0.3-0.1-0.6-0.3-0.8-0.4c-1.3-0.6-2.6-0.4-3.4,0.6
	c-0.9,1.1-0.8,3.3,0.1,4.4c0.8,1,2.2,1.3,3.4,0.6c0.7-0.5,1.1-0.4,1.5,0.3c-1.4,1.6-4.2,1.7-5.8,0.2c-1.7-1.4-1.9-4.5-0.4-6.2
	C352.1,206.8,354.8,206.6,356.7,208.2z"/>
<path class="st0" d="M180.1,207.2c0,0.4,0,0.7,0,1.2c-0.8,0-1.6,0-2.5,0c0,2.5,0,4.9,0,7.3c-0.6,0-1,0-1.6,0c0-2.4,0-4.8,0-7.3
	c-0.9,0-1.7,0-2.5,0c0-0.4,0-0.8,0-1.2C175.7,207.2,177.9,207.2,180.1,207.2z"/>
<path class="st0" d="M280.8,215.8c-0.6,0-1,0-1.6,0c0-2.4,0-4.8,0-7.4c-0.9,0-1.7,0-2.6,0c0-0.4-0.1-0.8-0.1-1.2c2.3,0,4.4,0,6.7,0
	c0,0.3,0.1,0.7,0.1,1.1c-0.9,0-1.6,0-2.6,0C280.8,210.8,280.8,213.3,280.8,215.8z"/>
<path class="st0" d="M370,207.2c0,0.4,0,0.7,0,1.1c-0.8,0-1.6,0-2.5,0c0,2.5,0,4.9,0,7.4c-0.6,0-1,0-1.6,0c0-2.4,0-4.8,0-7.3
	c-0.9,0-1.7,0-2.6,0c0-0.4,0-0.8-0.1-1.2C365.5,207.2,367.7,207.2,370,207.2z"/>
<path class="st0" d="M92.6,207.2c0.5,0,1,0,1.5,0c0,2.8,0,5.7,0,8.5c-0.5,0-0.9,0-1.5,0C92.6,212.9,92.6,210.1,92.6,207.2z"/>
<path class="st0" d="M142.4,215.8c-0.5,0-1,0-1.5,0c0-2.8,0-5.7,0-8.6c0.5,0,1,0,1.5,0C142.4,210,142.4,212.9,142.4,215.8z"/>
<path class="st0" d="M238.1,207.2c0.5,0,1,0,1.5,0c0,2.8,0,5.6,0,8.5c-0.5,0-0.9,0-1.5,0C238.1,212.9,238.1,210.1,238.1,207.2z"/>
<path class="st0" d="M314.1,207.2c0.5,0,1,0,1.5,0c0,2.9,0,5.7,0,8.5c-0.5,0-1,0-1.5,0C314.1,212.9,314.1,210.1,314.1,207.2z"/>
<path class="st0" d="M377.2,215.7c0-2.9,0-5.6,0-8.5c0.5,0,1,0,1.6,0c0,2.8,0,5.6,0,8.5C378.3,215.7,377.8,215.7,377.2,215.7z"/>
</svg>
